<svg xmlns="http://www.w3.org/2000/svg" viewBox="0 0 659.1928 585.3784"><defs><style>.cls-1{fill:#e11f25;}.cls-2{fill:#ffc706;}.cls-3{fill:#848589;}</style></defs><title>logo</title><g id="Logo"><g id="MF"><g id="M"><path class="cls-1" d="M7326.6014,7000.1457l-144.978,93.4669L7088.5,7032.6457q-2,93-4,186l-44.8551-33.5V6946.45L7179.5,7035.1457l147.1014-88.6957Z" transform="translate(-6851.8742 -6811.5339)"/></g><g id="F"><path class="cls-1" d="M7181.529,7201.3583l145.0724-92.25v-56.75l-145.0724,90.5Z" transform="translate(-6851.8742 -6811.5339)"/><path class="cls-1" d="M7181.529,7311.6339l46.471-31v-58.5l-46.471,29.8333Z" transform="translate(-6851.8742 -6811.5339)"/></g></g><g id="Bars_-_left" data-name="Bars - left"><path class="cls-2" d="M7034.5819,7372.1691A15.28,15.28,0,0,1,7037,7388.4167a15.4567,15.4567,0,0,1-17.5,8.0833c-6.7781-3.9086-167.2017-100.27-167.625-289.25A335.18,335.18,0,0,1,7019.5,6816.5a14.6789,14.6789,0,0,1,16.5,22.125c-97.6,54.6839-157.9374,158.29-157,269.75C6880.4539,7281.2484,7028.4306,7368.6805,7034.5819,7372.1691Z" transform="translate(-6851.8742 -6811.5339)"/><path class="cls-3" d="M7037.3333,7292.3333a13.8991,13.8991,0,0,1-1.125,17.0834,13.7505,13.7505,0,0,1-14.2414,3.4545c-10.07-7.9345-106.3689-86.5563-101.3-217.2045,4.5391-116.9973,86.8567-185.1827,99.3333-195.1667,6.9507-2.2565,14.2528,1.0415,16.8333,7a13.4668,13.4668,0,0,1-3.3333,14.8333c-10.0927,8.2343-87.8843,73.9794-87.1667,185C6947.0581,7219.4661,7027.27,7284.4639,7037.3333,7292.3333Z" transform="translate(-6851.8742 -6811.5339)"/></g><g id="Bars-right"><path class="cls-2" d="M7328.3592,7367.7412a15.28,15.28,0,0,0-2.4181,16.2476,15.4567,15.4567,0,0,0,17.5,8.0833c6.7781-3.9086,167.2017-100.2705,167.625-289.25a335.18,335.18,0,0,0-167.625-290.75,14.6789,14.6789,0,0,0-16.5,22.125c97.6,54.6839,157.9374,158.29,157,269.75C7482.4872,7276.82,7334.5105,7364.2526,7328.3592,7367.7412Z" transform="translate(-6851.8742 -6811.5339)"/><path class="cls-3" d="M7325.6078,7287.9054a13.8991,13.8991,0,0,0,1.125,17.0834,13.75,13.75,0,0,0,14.2414,3.4544c10.07-7.9344,106.3689-86.5562,101.3-217.2045-4.5391-116.9972-86.8567-185.1826-99.3333-195.1666-6.9507-2.2565-14.2528,1.0415-16.8333,7a13.4668,13.4668,0,0,0,3.3333,14.8333c10.0927,8.2343,87.8843,73.9793,87.1667,185C7415.883,7215.0381,7335.6716,7280.036,7325.6078,7287.9054Z" transform="translate(-6851.8742 -6811.5339)"/></g></g></svg>